<?xml version="1.0" standalone="no"?>
<!DOCTYPE svg PUBLIC "-//W3C//DTD SVG 20010904//EN"
 "http://www.w3.org/TR/2001/REC-SVG-20010904/DTD/svg10.dtd">
<svg version="1.0" xmlns="http://www.w3.org/2000/svg"
 width="175.000000pt" height="175.000000pt" viewBox="0 0 175.000000 175.000000"
 preserveAspectRatio="xMidYMid meet">
<metadata>
Created by potrace 1.14, written by Peter Selinger 2001-2017
</metadata>
<g transform="translate(0.000000,175.000000) scale(0.100000,-0.100000)"
fill="#000000" stroke="none">
<path d="M36 1531 c-11 -17 3 -52 17 -45 7 4 9 4 5 -1 -10 -11 11 -47 22 -40
6 3 7 -1 4 -9 -3 -9 -2 -16 3 -16 5 0 17 -16 26 -36 11 -21 22 -32 29 -28 6 4
8 3 4 -4 -3 -6 1 -18 10 -26 8 -9 13 -16 9 -16 -3 0 6 -16 21 -35 14 -19 30
-32 35 -29 5 3 6 -2 3 -10 -3 -8 4 -24 15 -35 12 -12 22 -24 24 -28 1 -5 6 -7
10 -5 5 1 6 -2 3 -7 -6 -9 58 -110 76 -122 6 -3 10 -10 10 -15 0 -5 4 -8 10
-6 5 1 7 -2 4 -7 -4 -5 4 -20 16 -32 13 -12 17 -18 9 -14 -9 5 -7 -2 5 -17 10
-14 23 -23 28 -20 5 3 6 0 2 -6 -4 -6 2 -20 14 -32 11 -11 21 -23 23 -27 1 -5
5 -7 10 -5 4 1 6 -1 5 -5 -4 -11 44 -93 54 -93 4 0 8 -4 8 -9 0 -16 72 -116
81 -114 5 2 8 0 7 -5 -4 -11 51 -92 63 -92 5 0 8 -4 5 -9 -6 -8 28 -59 49 -73
5 -4 10 -11 10 -15 0 -16 47 -83 55 -78 4 3 7 -3 6 -13 0 -9 5 -16 12 -14 8 1
11 -2 6 -9 -4 -7 -1 -17 7 -23 8 -6 20 -23 28 -38 8 -15 18 -25 22 -22 5 3 7
-1 4 -8 -2 -7 6 -26 19 -42 23 -28 24 -28 40 -10 9 11 16 22 16 26 0 4 12 19
25 34 14 15 22 30 20 34 -3 4 2 10 10 14 8 3 15 12 15 21 0 8 4 15 9 15 10 0
27 39 23 53 -1 5 1 6 6 3 9 -5 47 62 44 77 -1 4 3 7 9 7 6 0 8 7 5 16 -3 8 -2
12 3 9 5 -3 13 4 16 16 6 17 12 19 33 14 15 -4 30 -11 33 -17 4 -6 12 -7 18
-4 7 5 10 2 9 -6 -2 -8 4 -12 16 -10 10 2 15 -1 12 -7 -8 -12 28 -33 39 -23 5
4 5 2 2 -4 -6 -11 9 -23 25 -20 4 0 15 -10 24 -22 12 -18 19 -21 28 -12 7 7 7
13 1 18 -6 4 -11 36 -13 71 -1 36 -7 70 -12 76 -6 7 -8 14 -5 17 3 3 1 34 -5
69 -19 127 -19 127 6 154 13 14 26 24 28 23 9 -6 105 56 100 64 -3 5 -2 8 3 7
17 -3 32 1 45 14 7 6 31 21 52 32 22 11 46 26 53 33 12 12 30 19 57 21 5 1 3
8 -4 16 -7 9 -19 14 -26 11 -7 -3 -16 -1 -19 4 -3 5 -13 9 -23 9 -9 0 -44 7
-77 15 -33 9 -70 18 -83 20 -13 3 -39 10 -58 16 -18 6 -38 9 -44 5 -5 -3 -10
-2 -10 3 0 10 -66 28 -84 23 -5 -1 -12 3 -16 9 -4 7 -19 13 -33 13 -14 1 -23
5 -20 10 4 6 -21 11 -54 10 -7 -1 -13 3 -13 7 0 11 -79 32 -92 24 -7 -4 -8 -3
-4 4 7 11 3 13 -36 16 -7 1 -15 4 -18 7 -5 6 -101 39 -123 43 -7 1 -18 5 -24
9 -7 5 -18 5 -23 2 -5 -3 -10 -1 -10 5 0 7 -7 10 -15 6 -8 -3 -15 -2 -15 3 0
9 -89 37 -102 33 -5 -1 -8 3 -8 9 0 6 -9 9 -20 6 -13 -3 -18 -1 -13 6 4 6 -2
8 -15 5 -13 -4 -22 -1 -22 5 0 6 -3 7 -7 4 -3 -4 -11 -3 -17 2 -9 7 -69 30
-96 36 -3 1 -18 7 -34 14 -16 6 -35 10 -43 7 -7 -3 -13 -2 -13 3 0 8 -41 23
-56 20 -4 0 -10 3 -13 9 -9 14 -141 53 -153 46 -7 -4 -8 -3 -4 4 4 7 -8 15
-32 21 -74 20 -100 23 -106 12z"/>
<path d="M1637 361 c14 -12 39 -19 68 -19 38 -1 45 2 45 18 0 18 -7 20 -67 20
-67 -1 -68 -1 -46 -19z"/>
</g>
</svg>
